<?xml version="1.0" encoding="utf-8"?>
<!-- Generator: Adobe Illustrator 26.0.0, SVG Export Plug-In . SVG Version: 6.00 Build 0)  -->
<svg version="1.1" id="Capa_1" xmlns="http://www.w3.org/2000/svg" xmlns:xlink="http://www.w3.org/1999/xlink" x="0px" y="0px"
	 viewBox="0 0 279 246" style="enable-background:new 0 0 279 246;" xml:space="preserve">
<g>
	<path d="M139.23,238.79c-1.13-11.37-8.17-17.38-16-22.68c-8.71-5.89-17.37-11.79-23.51-20.57c-0.97-1.4-2.45-1.7-3.82-2.15
		c-5.88-1.94-11.48-4.5-16.79-7.64c-10.28-6.09-21.19-9.57-33.26-8.82c-0.65,0.04-1.3-0.08-1.93-0.12c-0.29-1.64,0.8-2.6,1.49-3.69
		c5.87-9.34,9.07-19.59,10.45-30.45c0.82-6.45,1.9-12.84,3.68-19.1c0.47-1.65,0.53-3.2,0-4.89c-1.94-6.08-2.64-12.35-2.65-18.72
		c0-2-0.04-4-0.13-6c-0.52-11.04-1.3-22-10.17-31.34c4.16-0.01,7.28,0.17,10.38-0.12c8.43-0.78,16.14-3.79,23.69-7.34
		c7.26-3.42,14.72-6.17,22.78-6.97c1.34-0.13,2.63-0.34,3.67-1.34c6.89-6.63,15.21-11.31,22.91-16.85
		c6.7-4.82,12.5-10.46,16.32-17.9c0.76-1.47,1.56-2.91,2.96-0.55c7.13,12,18.02,20.38,28.31,29.33c3.15,2.74,6.19,5.57,8.92,8.72
		c1.11,1.28,2.2,2.36,4.06,2.6c9.43,1.22,17.71,5.48,25.9,9.98c5.54,3.04,11.19,5.82,17.45,7.2c3.25,0.72,6.55,0.26,10.45,0.76
		c-3.8,5.08-6.07,10.36-7.13,16.12c-1.32,7.23-1.23,14.6-2.12,21.87c-0.73,6.01-1.67,11.9-6.02,16.56
		c-0.91,0.98-1.04,1.95-0.71,3.19c2.6,9.9,2.42,20.13,3.61,30.2c0.94,7.97,2.19,15.85,7.11,22.57c0.93,1.27,1.47,2.54-0.86,2.59
		c-15.09,0.28-28.66,6.73-42.94,10.29c-7.25,1.81-13.65,4.1-18.86,9.81c-4.15,4.54-9.77,7.46-15.03,10.66
		c-9.19,5.58-16.64,12.71-20.98,22.74C140.26,237.19,139.95,237.58,139.23,238.79z M127.07,52.22c-4.19,1.76-6.73,4.19-9.16,6.67
		C102.42,74.75,93.66,93.82,92.4,115.9c-1.04,18.16,5.92,32.81,21.97,42.32c8.28,4.9,17.53,6.96,26.93,8.57
		c4.49,0.76,8.04-0.16,11.31-3.32c2.87-2.78,5.95-5.34,8.48-8.44c5.6-6.85,8.74-14.5,6.82-23.53c-1.27-5.97-4.3-11.12-7.96-15.91
		c-5.15-6.76-11.05-12.86-16.96-18.95c-5.11-5.26-10.03-10.68-14.07-16.82C123.37,71.35,121.36,62.49,127.07,52.22z M112.86,193.85
		c8.19-0.29,15.97-2.87,23.33-7.01c2.25-1.27,2.34-2.36,0.48-4.07c-3.58-3.29-6.86-7-8.52-11.55c-1.42-3.91-3.98-5.45-7.61-6.84
		c-16.24-6.22-26.69-17.73-30.1-34.97c-1.73-8.74-1.27-17.62,0.8-26.25c0.81-3.37-0.23-6.21-0.55-9.28
		c-0.16-1.54-1.12-1.81-2.5-1.05c-8.25,4.53-15.71,9.88-20.66,18.21c-4.44,7.47-6.22,15.7-7.49,24.1
		c-1.89,12.51-3.63,25.05-10.22,36.22c-1.51,2.57,0.34,2.37,1.85,2.36c7.87-0.07,15.02,2.51,21.94,5.89
		c5.22,2.56,10.33,5.35,15.55,7.92C96.54,191.17,104.23,193.72,112.86,193.85z M174.72,194.06c8.39,0.17,16.11-1.77,23.73-4.25
		c11.36-3.7,22.53-8.09,34.62-8.98c1.94-0.14,2.2-1.12,1.38-2.67c-4.17-7.85-4.88-16.47-5.68-25.1c-0.82-8.93-1.43-17.88-3.88-26.6
		c-3.45-12.29-10.65-21.63-21.48-28.25c-2.78-1.7-3.19-1.51-4,1.55c-0.48,1.8-0.5,3.61-0.16,5.44c0.49,2.61,1.1,5.21,1.36,7.85
		c1.47,14.88-1.52,28.51-11.9,39.81c-7.08,7.71-16.1,12.11-26.27,14.25c-1.94,0.41-3.86,0.64-4.97,2.77
		c-2.71,5.25-6.56,9.59-11.15,13.28c-1.92,1.54-1.53,2.47,0.54,3.52C155.73,191.16,164.9,194.37,174.72,194.06z M162.42,53.75
		c4.88,9.88,3.18,18.91-2.43,27.62c-2.8,4.35-6.05,8.34-9.6,12.09c-3.17,3.35-3.13,3.35-0.15,6.68
		c5.98,6.69,12.29,13.08,16.68,21.05c6.07,11.02,5.56,21.58-1.55,31.89c-2.08,3.02-4.43,5.81-7,8.44c-1.11,1.14-2.67,1.96-3.23,4.07
		c11.21-1.9,21.46-5.51,29.69-13.25c10.91-10.25,13.94-23.45,12.66-37.84c-1.32-14.87-6.6-28.42-14.67-40.87
		C177.55,65.51,171.39,58.19,162.42,53.75z M161.72,66.7c0.99-5.39-1.17-9.78-3.94-14.03c-0.59-0.91-2.04-1.76-1.21-2.98
		c0.93-1.35,2.4-0.54,3.67-0.23c3.82,0.95,6.99,3.07,9.92,5.56c10.48,8.9,17.92,20,23.22,32.6c0.87,2.06,1.51,4.09,4.41,3.89
		c1.47-17.39-4.14-31.97-17-43.84c-11.19-10.33-23.63-19.39-32.59-32.84c-5.49,9.89-14.05,15.65-22.6,21.43
		c-7.17,4.85-14.31,9.74-20.23,16.16c-8.55,9.26-12.4,20.29-12.28,32.79c0.01,0.73-0.42,1.88,0.61,2.09
		c0.68,0.14,1.68-0.27,2.25-0.76c1.42-1.22,1.86-3.1,2.67-4.72c5.57-11.12,12.49-21.19,22.24-29.11c2.75-2.23,5.78-3.94,9.25-4.67
		c1.91-0.4,2.43,0.62,1.71,2.31c-0.74,1.72-2.74,2.88-2.48,5.37c2.65-2.48,4.91-4.94,7.81-6.65c0.72-0.43,1.51-0.74,2.28-0.01
		c0.61,0.58,0.36,1.2,0.09,1.81c-0.73,1.61-0.85,3.3-0.07,4.83c1.32,2.59,2.19,7.18,4.75,6.8c2.47-0.37,3.62-4.61,3.68-7.96
		c0.06-2.91,0.74-3.2,3.15-1.37C155.74,56.74,159.21,61.31,161.72,66.7z M192.14,55.64c6.9,11.93,9.07,20.3,8.92,33.92
		c-0.02,2.18-0.18,4,2.24,5.45c9.94,5.96,17.33,14.3,22.27,24.83c1.32,2.81,2.02,2.78,3.51,0.26c0.58-0.99,0.95-2.11,1.34-3.19
		c2.14-5.88,2.11-12.07,2.5-18.19c0.52-8.14,0.99-16.29,5.22-23.59c1.23-2.12,0.28-2.7-1.62-2.69c-6.04,0.04-11.33-2.28-16.49-5.06
		c-2.34-1.26-4.64-2.57-6.98-3.83C206.63,60.12,200.23,56.62,192.14,55.64z M101.22,52.16c-5.16-0.74-9.13,1.54-13.15,3.17
		c-10.72,4.34-21,10.05-33.05,9.95c-2.36-0.02-1.87,1.25-1.05,2.55c3.87,6.12,4.84,12.96,5.06,20c0.12,4.15,0.06,8.32,0.42,12.46
		c0.42,4.78,0.36,9.7,2.55,14.92c5.69-11.73,14.21-19.56,25.26-24.66c2.4-1.11,2.87-2.74,2.85-5.12c-0.06-9.32,2.14-18.1,6.76-26.22
		C98.17,56.93,99.62,54.75,101.22,52.16z M179.11,197.19c-12.71-0.11-24.06-2.35-34.38-8.3c-2.59-1.49-4.3-1.23-6.68,0.12
		c-10.72,6.04-22.08,9.06-34.58,6.36c0.44,1.71,1.69,2.59,2.68,3.66c4.92,5.28,11.04,9.01,16.83,13.19
		c6.83,4.93,14.36,9.26,17.45,18.5c3.05-6.15,7.34-10.51,12.41-14.12c3.52-2.5,7.14-4.87,10.73-7.28
		C168.78,205.83,174.13,202.5,179.11,197.19z M151.16,57.42c-1.67,5.02-4.61,8.86-7.13,12.95c-3.55,5.77-4.88,11.92-3.12,18.62
		c0.35,1.34,0.91,2.41,1.77,3.47c1.44,1.75,2.55,2.17,4.35,0.23c3.16-3.43,5.97-7.14,9-10.66c4.94-5.74,4.14-11.5,0.96-17.51
		C155.66,62.02,153.98,59.75,151.16,57.42z M137.7,86.15c-0.7-6.69,0.88-12.07,3.38-17.19c0.81-1.66,1.03-2.99-0.12-4.59
		c-2.22-3.11-3.7-6.64-5.26-10.17c-11.04,9.48-11.11,13.19-4.06,24.67C133.1,81.24,134.68,83.6,137.7,86.15z M154.09,169.14
		c-5.23,1.68-10.31,0.64-15.38-0.07c-1.98-0.28-3.93-0.73-5.9-1.04c-0.79-0.12-1.77-0.67-2.37,0.04c-0.81,0.97,0.2,1.84,0.62,2.66
		c2.1,4.01,4.85,7.49,8.19,10.57c1.6,1.48,2.75,1.93,4.6,0.33C147.9,178.14,151.67,174.47,154.09,169.14z"/>
</g>
</svg>
